
        <svg version="1.1" className='main-bg' xmlns="http://www.w3.org/2000/svg" x="0px" y="0px"
            width="696" height="497" viewBox="0 0 2800 2000" enableBackground="new 0 0 2800 2000" >
            <g>
                <rect display="none" fill="#FFFFFF" width="2800" height="2000" />
                <path fill="#EBF2F9" d="M2379.198,1849.507c0,0,316-226.93,172-523.083c-144-296.154-404.644,155.866-586.321-262.144
           c-181.679-418.01-222.376-738.01-706.027-606.01S973.455,936.685,720.327,971.478c-253.128,34.792-453.128,160.246-337.128,431.52
           c116,271.272-172,449.418-172,449.418L2379.198,1849.507z"/>
                <g>
                    <g>
                        <rect x="403.742" y="1622.214" fill="#DCEAF9" width="107.014" height="220.526" />
                        <polygon fill="#D5E7F7" points="1978.309,1001.957 1978.309,905.577 1949.05,905.577 1949.05,739.856 1792.18,739.856 
                   1792.18,905.577 1645.519,905.577 1645.519,678.423 1483.678,617.167 1483.678,810.835 1446.771,810.835 1446.771,552.924 
                   1284.931,606.56 1284.931,993.943 1080.251,993.943 1080.251,1222.759 1003.774,1222.759 1003.774,1280.401 828.11,1280.401 
                   828.11,1181.141 727.253,1181.141 727.253,911.419 602.666,911.419 602.666,1409.322 478.079,1409.322 478.079,1842.579 
                   602.666,1842.579 709.455,1842.579 727.253,1842.579 828.11,1842.579 885.119,1842.579 976.428,1842.579 1003.774,1842.579 
                   1080.251,1842.579 1152.093,1842.579 1284.931,1842.579 1325.613,1842.579 1406.551,1842.579 1446.771,1842.579 
                   1483.678,1842.579 1568.393,1842.579 1626.063,1842.579 1645.519,1842.579 1792.18,1842.579 1946.431,1842.579 1949.05,1842.579 
                   1978.309,1842.579 2103.301,1842.579 2103.301,1001.957 			"/>
                        <rect x="1311.219" y="628.041" fill="#C4D9ED" width="109.175" height="39.98" />
                        <rect x="1311.219" y="703.149" fill="#C4D9ED" width="109.175" height="39.98" />
                        <rect x="1311.219" y="770.722" fill="#C4D9ED" width="109.175" height="39.98" />
                        <g>
                            <rect x="602.721" y="1095.004" fill="#C4D9ED" width="125.683" height="61.713" />
                            <rect x="602.721" y="1284.434" fill="#C4D9ED" width="125.683" height="61.714" />
                            <rect x="602.721" y="1377.658" fill="#C4D9ED" width="125.683" height="61.713" />
                        </g>
                        <rect x="602.721" y="1475.19" fill="#C4D9ED" width="125.683" height="61.713" />
                        <rect x="602.721" y="1570.707" fill="#C4D9ED" width="125.683" height="61.714" />
                        <rect x="602.721" y="1668.239" fill="#C4D9ED" width="125.683" height="61.714" />
                        <g>
                            <rect x="1507.093" y="770.722" fill="#C4D9ED" width="114.828" height="39.98" />
                            <rect x="1507.093" y="703.76" fill="#C4D9ED" width="114.828" height="39.98" />
                            <rect x="1308.439" y="836.241" fill="#C4D9ED" width="313.481" height="39.981" />
                            <rect x="1308.439" y="896.356" fill="#C4D9ED" width="313.481" height="39.98" />
                            <rect x="1308.439" y="956.066" fill="#C4D9ED" width="313.481" height="38.45" />
                        </g>
                        <rect x="602.721" y="1191.209" fill="#C4D9ED" width="125.683" height="61.714" />
                        <g>
                            <rect x="1113.695" y="1033.313" fill="#C4D9ED" width="27.436" height="38.671" />
                            <rect x="1165" y="1033.313" fill="#C4D9ED" width="27.436" height="38.671" />
                            <rect x="1215.157" y="1033.313" fill="#C4D9ED" width="27.436" height="38.671" />
                            <rect x="1262.713" y="1033.313" fill="#C4D9ED" width="27.436" height="38.671" />
                            <rect x="1311.182" y="1033.313" fill="#C4D9ED" width="27.436" height="38.671" />
                            <rect x="1360.207" y="1033.313" fill="#C4D9ED" width="27.436" height="38.671" />
                            <rect x="1411.513" y="1033.313" fill="#C4D9ED" width="27.435" height="38.671" />
                            <rect x="1461.668" y="1033.313" fill="#C4D9ED" width="27.437" height="38.671" />
                            <rect x="1509.225" y="1033.313" fill="#C4D9ED" width="27.436" height="38.671" />
                            <rect x="1557.693" y="1033.313" fill="#C4D9ED" width="27.437" height="38.671" />
                            <rect x="1608.203" y="1033.313" fill="#C4D9ED" width="27.436" height="38.671" />
                            <rect x="1659.508" y="1033.313" fill="#C4D9ED" width="27.436" height="38.671" />
                            <rect x="1709.665" y="1033.313" fill="#C4D9ED" width="27.435" height="38.671" />
                            <rect x="1757.221" y="1033.313" fill="#C4D9ED" width="27.436" height="38.671" />
                            <rect x="1805.689" y="1033.313" fill="#C4D9ED" width="27.436" height="38.671" />
                            <rect x="1854.714" y="1033.313" fill="#C4D9ED" width="27.437" height="38.671" />
                            <rect x="1906.02" y="1033.313" fill="#C4D9ED" width="27.436" height="38.671" />
                            <rect x="1956.177" y="1033.313" fill="#C4D9ED" width="27.435" height="38.671" />
                            <rect x="2003.732" y="1033.313" fill="#C4D9ED" width="27.436" height="38.671" />
                            <rect x="2052.201" y="1033.313" fill="#C4D9ED" width="27.436" height="38.671" />
                            <rect x="1113.695" y="1101.554" fill="#C4D9ED" width="27.436" height="38.671" />
                            <rect x="1165" y="1101.554" fill="#C4D9ED" width="27.436" height="38.671" />
                            <rect x="1215.157" y="1101.554" fill="#C4D9ED" width="27.436" height="38.671" />
                            <rect x="1262.713" y="1101.554" fill="#C4D9ED" width="27.436" height="38.671" />
                            <rect x="1311.182" y="1101.554" fill="#C4D9ED" width="27.436" height="38.671" />
                            <rect x="1360.207" y="1101.554" fill="#C4D9ED" width="27.436" height="38.671" />
                            <rect x="1411.513" y="1101.554" fill="#C4D9ED" width="27.435" height="38.671" />
                            <rect x="1461.668" y="1101.554" fill="#C4D9ED" width="27.437" height="38.671" />
                            <rect x="1509.225" y="1101.554" fill="#C4D9ED" width="27.436" height="38.671" />
                            <rect x="1557.693" y="1101.554" fill="#C4D9ED" width="27.437" height="38.671" />
                            <rect x="1608.203" y="1101.554" fill="#C4D9ED" width="27.436" height="38.671" />
                            <rect x="1659.508" y="1101.554" fill="#C4D9ED" width="27.436" height="38.671" />
                            <rect x="1709.665" y="1101.554" fill="#C4D9ED" width="27.435" height="38.671" />
                            <rect x="1757.221" y="1101.554" fill="#C4D9ED" width="27.436" height="38.671" />
                            <rect x="1805.689" y="1101.554" fill="#C4D9ED" width="27.436" height="38.671" />
                            <rect x="1854.714" y="1101.554" fill="#C4D9ED" width="27.437" height="38.671" />
                            <rect x="1906.02" y="1101.554" fill="#C4D9ED" width="27.436" height="38.671" />
                            <rect x="1956.177" y="1101.554" fill="#C4D9ED" width="27.435" height="38.671" />
                            <rect x="2003.732" y="1101.554" fill="#C4D9ED" width="27.436" height="38.671" />
                            <rect x="2052.201" y="1101.554" fill="#C4D9ED" width="27.436" height="38.671" />
                            <rect x="1113.695" y="1168.748" fill="#C4D9ED" width="27.436" height="38.672" />
                            <rect x="1165" y="1168.748" fill="#C4D9ED" width="27.436" height="38.672" />
                            <rect x="1215.157" y="1168.748" fill="#C4D9ED" width="27.436" height="38.672" />
                            <rect x="1262.713" y="1168.748" fill="#C4D9ED" width="27.436" height="38.672" />
                            <rect x="1311.182" y="1168.748" fill="#C4D9ED" width="27.436" height="38.672" />
                            <rect x="1360.207" y="1168.748" fill="#C4D9ED" width="27.436" height="38.672" />
                            <rect x="1411.513" y="1168.748" fill="#C4D9ED" width="27.435" height="38.672" />
                            <rect x="1461.668" y="1168.748" fill="#C4D9ED" width="27.437" height="38.672" />
                            <rect x="1509.225" y="1168.748" fill="#C4D9ED" width="27.436" height="38.672" />
                            <rect x="1557.693" y="1168.748" fill="#C4D9ED" width="27.437" height="38.672" />
                            <rect x="1608.203" y="1168.748" fill="#C4D9ED" width="27.436" height="38.672" />
                            <rect x="1659.508" y="1168.748" fill="#C4D9ED" width="27.436" height="38.672" />
                            <rect x="1709.665" y="1168.748" fill="#C4D9ED" width="27.435" height="38.672" />
                            <rect x="1757.221" y="1168.748" fill="#C4D9ED" width="27.436" height="38.672" />
                            <rect x="1805.689" y="1168.748" fill="#C4D9ED" width="27.436" height="38.672" />
                            <rect x="1854.714" y="1168.748" fill="#C4D9ED" width="27.437" height="38.672" />
                            <rect x="1906.02" y="1168.748" fill="#C4D9ED" width="27.436" height="38.672" />
                            <rect x="1956.177" y="1168.748" fill="#C4D9ED" width="27.435" height="38.672" />
                            <rect x="2003.732" y="1168.748" fill="#C4D9ED" width="27.436" height="38.672" />
                            <rect x="2052.201" y="1168.748" fill="#C4D9ED" width="27.436" height="38.672" />
                            <rect x="1113.695" y="1240.141" fill="#C4D9ED" width="27.436" height="38.671" />
                            <rect x="1165" y="1240.141" fill="#C4D9ED" width="27.436" height="38.671" />
                            <rect x="1215.157" y="1240.141" fill="#C4D9ED" width="27.436" height="38.671" />
                            <rect x="1262.713" y="1240.141" fill="#C4D9ED" width="27.436" height="38.671" />
                            <rect x="1311.182" y="1240.141" fill="#C4D9ED" width="27.436" height="38.671" />
                            <rect x="1360.207" y="1240.141" fill="#C4D9ED" width="27.436" height="38.671" />
                            <rect x="1411.513" y="1240.141" fill="#C4D9ED" width="27.435" height="38.671" />
                            <rect x="1461.668" y="1240.141" fill="#C4D9ED" width="27.437" height="38.671" />
                            <rect x="1509.225" y="1240.141" fill="#C4D9ED" width="27.436" height="38.671" />
                            <rect x="1557.693" y="1240.141" fill="#C4D9ED" width="27.437" height="38.671" />
                            <rect x="1608.203" y="1240.141" fill="#C4D9ED" width="27.436" height="38.671" />
                            <rect x="1659.508" y="1240.141" fill="#C4D9ED" width="27.436" height="38.671" />
                            <rect x="1709.665" y="1240.141" fill="#C4D9ED" width="27.435" height="38.671" />
                            <rect x="1757.221" y="1240.141" fill="#C4D9ED" width="27.436" height="38.671" />
                            <rect x="1805.689" y="1240.141" fill="#C4D9ED" width="27.436" height="38.671" />
                            <rect x="1854.714" y="1240.141" fill="#C4D9ED" width="27.437" height="38.671" />
                            <rect x="1906.02" y="1240.141" fill="#C4D9ED" width="27.436" height="38.671" />
                            <rect x="1956.177" y="1240.141" fill="#C4D9ED" width="27.435" height="38.671" />
                            <rect x="2003.732" y="1240.141" fill="#C4D9ED" width="27.436" height="38.671" />
                            <rect x="2052.201" y="1240.141" fill="#C4D9ED" width="27.436" height="38.671" />
                            <rect x="1113.695" y="1308.381" fill="#C4D9ED" width="27.436" height="38.67" />
                            <rect x="1165" y="1308.381" fill="#C4D9ED" width="27.436" height="38.67" />
                            <rect x="1215.157" y="1308.381" fill="#C4D9ED" width="27.436" height="38.67" />
                            <rect x="1262.713" y="1308.381" fill="#C4D9ED" width="27.436" height="38.67" />
                            <rect x="1311.182" y="1308.381" fill="#C4D9ED" width="27.436" height="38.67" />
                            <rect x="1360.207" y="1308.381" fill="#C4D9ED" width="27.436" height="38.67" />
                            <rect x="1411.513" y="1308.381" fill="#C4D9ED" width="27.435" height="38.67" />
                            <rect x="1461.668" y="1308.381" fill="#C4D9ED" width="27.437" height="38.67" />
                            <rect x="1509.225" y="1308.381" fill="#C4D9ED" width="27.436" height="38.67" />
                            <rect x="1557.693" y="1308.381" fill="#C4D9ED" width="27.437" height="38.67" />
                            <rect x="1608.203" y="1308.381" fill="#C4D9ED" width="27.436" height="38.67" />
                            <rect x="1659.508" y="1308.381" fill="#C4D9ED" width="27.436" height="38.67" />
                            <rect x="1709.665" y="1308.381" fill="#C4D9ED" width="27.435" height="38.67" />
                            <rect x="1757.221" y="1308.381" fill="#C4D9ED" width="27.436" height="38.67" />
                            <rect x="1805.689" y="1308.381" fill="#C4D9ED" width="27.436" height="38.67" />
                            <rect x="1854.714" y="1308.381" fill="#C4D9ED" width="27.437" height="38.67" />
                            <rect x="1906.02" y="1308.381" fill="#C4D9ED" width="27.436" height="38.67" />
                            <rect x="2003.732" y="1308.381" fill="#C4D9ED" width="27.436" height="38.67" />
                            <rect x="1956.176" y="1308.381" fill="#C4D9ED" width="27.437" height="38.67" />
                            <rect x="2052.201" y="1308.381" fill="#C4D9ED" width="27.436" height="38.67" />
                            <rect x="1113.695" y="1375.575" fill="#C4D9ED" width="27.436" height="38.67" />
                            <rect x="1165" y="1375.575" fill="#C4D9ED" width="27.436" height="38.67" />
                            <rect x="1215.157" y="1375.575" fill="#C4D9ED" width="27.436" height="38.67" />
                            <rect x="1262.713" y="1375.575" fill="#C4D9ED" width="27.436" height="38.67" />
                            <rect x="1311.182" y="1375.575" fill="#C4D9ED" width="27.436" height="38.67" />
                            <rect x="1360.207" y="1375.575" fill="#C4D9ED" width="27.436" height="38.67" />
                            <rect x="1411.513" y="1375.575" fill="#C4D9ED" width="27.435" height="38.67" />
                            <rect x="1461.668" y="1375.575" fill="#C4D9ED" width="27.437" height="38.67" />
                            <rect x="1509.225" y="1375.575" fill="#C4D9ED" width="27.436" height="38.67" />
                            <rect x="1557.693" y="1375.575" fill="#C4D9ED" width="27.437" height="38.67" />
                            <rect x="1608.203" y="1375.575" fill="#C4D9ED" width="27.436" height="38.67" />
                            <rect x="1659.508" y="1375.575" fill="#C4D9ED" width="27.436" height="38.67" />
                            <rect x="1709.665" y="1375.575" fill="#C4D9ED" width="27.435" height="38.67" />
                            <rect x="1757.221" y="1375.575" fill="#C4D9ED" width="27.436" height="38.67" />
                            <rect x="1805.689" y="1375.575" fill="#C4D9ED" width="27.436" height="38.67" />
                            <rect x="1854.714" y="1375.575" fill="#C4D9ED" width="27.437" height="38.67" />
                            <rect x="1906.02" y="1375.575" fill="#C4D9ED" width="27.436" height="38.67" />
                            <rect x="2003.732" y="1375.575" fill="#C4D9ED" width="27.436" height="38.67" />
                            <rect x="2052.201" y="1375.575" fill="#C4D9ED" width="27.436" height="38.67" />
                        </g>
                        <rect x="2309.626" y="1299.131" fill="#C4D9ED" width="61.036" height="412.928" />
                        <rect x="2244.104" y="1550.186" fill="#ADC9E0" width="65.522" height="286.816" />
                        <polygon fill="#C4D9ED" points="872.754,1181.141 872.754,1100.703 876.06,1100.703 876.06,1181.141 921.325,1181.141 
                   921.325,1280.401 828.11,1280.401 828.11,1181.141 			"/>
                        <polygon fill="#C4D9ED" points="602.721,973.159 602.721,911.446 627.735,911.446 627.735,884.589 631.041,884.589 
                   631.041,911.446 726.659,911.446 728.403,911.446 746.491,911.446 746.491,884.589 749.796,884.589 749.796,911.446 
                   772.999,911.446 772.999,1181.141 726.659,1181.141 726.659,1064.938 602.721,1064.938 602.721,1003.225 726.659,1003.225 
                   726.659,973.159 			"/>
                        <polygon fill="#D5E7F7" points="1959.639,1359.232 1959.639,1707.324 2309.626,1707.324 2309.626,1299.131 			" />
                        <rect x="1959.639" y="1549.106" fill="#D5E7F7" width="436.619" height="293.635" />
                        <rect x="1959.639" y="1375.326" fill="#C4D9ED" width="436.619" height="95.436" />
                        <g>
                            <rect x="1989.368" y="1628.725" fill="#C4D9ED" width="22.423" height="31.607" />
                            <rect x="2031.301" y="1628.725" fill="#C4D9ED" width="22.425" height="31.607" />
                            <rect x="2072.295" y="1628.725" fill="#C4D9ED" width="22.425" height="31.607" />
                            <rect x="2111.164" y="1628.725" fill="#C4D9ED" width="22.424" height="31.607" />
                            <rect x="2150.779" y="1628.725" fill="#C4D9ED" width="22.424" height="31.607" />
                            <rect x="2190.848" y="1628.725" fill="#C4D9ED" width="22.424" height="31.607" />
                            <rect x="2232.78" y="1628.725" fill="#C4D9ED" width="22.425" height="31.607" />
                            <rect x="2273.774" y="1628.725" fill="#C4D9ED" width="22.425" height="31.607" />
                            <rect x="2312.645" y="1628.725" fill="#C4D9ED" width="22.423" height="31.607" />
                            <rect x="2352.258" y="1628.725" fill="#C4D9ED" width="22.425" height="31.607" />
                            <rect x="1989.368" y="1684.5" fill="#C4D9ED" width="22.423" height="31.605" />
                            <rect x="2031.301" y="1684.5" fill="#C4D9ED" width="22.425" height="31.605" />
                            <rect x="2072.295" y="1684.5" fill="#C4D9ED" width="22.425" height="31.605" />
                            <rect x="2111.164" y="1684.5" fill="#C4D9ED" width="22.424" height="31.605" />
                            <rect x="2150.779" y="1684.5" fill="#C4D9ED" width="22.424" height="31.605" />
                            <rect x="2190.848" y="1684.5" fill="#C4D9ED" width="22.424" height="31.605" />
                            <rect x="2232.78" y="1684.5" fill="#C4D9ED" width="22.425" height="31.605" />
                            <rect x="2273.774" y="1684.5" fill="#C4D9ED" width="22.425" height="31.605" />
                            <rect x="2312.645" y="1684.5" fill="#C4D9ED" width="22.423" height="31.605" />
                            <rect x="2352.258" y="1684.5" fill="#C4D9ED" width="22.425" height="31.605" />
                            <rect x="1989.368" y="1516.337" fill="#C4D9ED" width="22.423" height="31.607" />
                            <rect x="2031.301" y="1516.337" fill="#C4D9ED" width="22.425" height="31.607" />
                            <rect x="2072.295" y="1516.337" fill="#C4D9ED" width="22.425" height="31.607" />
                            <rect x="2111.164" y="1516.337" fill="#C4D9ED" width="22.424" height="31.607" />
                            <rect x="2150.779" y="1516.337" fill="#C4D9ED" width="22.424" height="31.607" />
                            <rect x="2190.848" y="1516.337" fill="#C4D9ED" width="22.424" height="31.607" />
                            <rect x="2232.78" y="1516.337" fill="#C4D9ED" width="22.425" height="31.607" />
                            <rect x="2273.774" y="1516.337" fill="#C4D9ED" width="22.425" height="31.607" />
                            <rect x="1989.368" y="1572.112" fill="#C4D9ED" width="22.423" height="31.605" />
                            <rect x="2031.301" y="1572.112" fill="#C4D9ED" width="22.425" height="31.605" />
                            <rect x="2072.295" y="1572.112" fill="#C4D9ED" width="22.425" height="31.605" />
                            <rect x="2111.164" y="1572.112" fill="#C4D9ED" width="22.424" height="31.605" />
                            <rect x="2150.779" y="1572.112" fill="#C4D9ED" width="22.424" height="31.605" />
                            <rect x="2190.848" y="1572.112" fill="#C4D9ED" width="22.424" height="31.605" />
                            <rect x="2232.78" y="1572.112" fill="#C4D9ED" width="22.425" height="31.605" />
                            <rect x="2273.774" y="1572.112" fill="#C4D9ED" width="22.425" height="31.605" />
                            <rect x="2312.645" y="1572.112" fill="#C4D9ED" width="22.423" height="31.605" />
                            <rect x="2352.258" y="1572.112" fill="#C4D9ED" width="22.425" height="31.605" />
                            <rect x="1989.368" y="1739.419" fill="#C4D9ED" width="22.423" height="31.607" />
                            <rect x="2031.301" y="1739.419" fill="#C4D9ED" width="22.425" height="31.607" />
                            <rect x="2072.295" y="1739.419" fill="#C4D9ED" width="22.425" height="31.607" />
                            <rect x="2111.164" y="1739.419" fill="#C4D9ED" width="22.424" height="31.607" />
                            <rect x="2150.779" y="1739.419" fill="#C4D9ED" width="22.424" height="31.607" />
                            <rect x="2190.848" y="1739.419" fill="#C4D9ED" width="22.424" height="31.607" />
                            <rect x="2232.78" y="1739.419" fill="#C4D9ED" width="22.425" height="31.607" />
                            <rect x="2273.774" y="1739.419" fill="#C4D9ED" width="22.425" height="31.607" />
                            <rect x="2312.645" y="1739.419" fill="#C4D9ED" width="22.423" height="31.607" />
                            <rect x="2352.258" y="1739.419" fill="#C4D9ED" width="22.425" height="31.607" />
                        </g>
                        <rect x="2279.687" y="1233.583" fill="#D5E7F7" width="6.468" height="82.762" />
                        <g>
                            <rect x="1992.949" y="1402.139" fill="#D5E7F7" width="18.842" height="32.6" />
                            <rect x="2180.021" y="1402.139" fill="#D5E7F7" width="18.844" height="32.6" />
                            <rect x="2328.838" y="1402.139" fill="#D5E7F7" width="18.843" height="32.6" />
                        </g>
                    </g>
                    <rect x="796.885" y="1475.19" fill="#C4D9ED" width="628.345" height="367.551" />
                    <rect x="1367.081" y="1512.868" fill="#D5E7F7" width="33.501" height="51.15" />
                    <rect x="1308.005" y="1512.868" fill="#D5E7F7" width="33.502" height="51.15" />
                    <rect x="1248.536" y="1512.868" fill="#D5E7F7" width="33.501" height="51.15" />
                    <rect x="1189.46" y="1512.868" fill="#D5E7F7" width="33.501" height="51.15" />
                    <rect x="1128.617" y="1512.868" fill="#D5E7F7" width="33.502" height="51.15" />
                    <rect x="1069.542" y="1512.868" fill="#D5E7F7" width="33.501" height="51.15" />
                    <rect x="1010.072" y="1512.868" fill="#D5E7F7" width="33.502" height="51.15" />
                    <rect x="950.997" y="1512.868" fill="#D5E7F7" width="33.502" height="51.15" />
                    <rect x="889.04" y="1512.868" fill="#D5E7F7" width="33.501" height="51.15" />
                    <rect x="829.964" y="1512.868" fill="#D5E7F7" width="33.502" height="51.15" />
                    <rect x="1367.081" y="1588.514" fill="#D5E7F7" width="33.501" height="51.15" />
                    <rect x="1308.005" y="1588.514" fill="#D5E7F7" width="33.502" height="51.15" />
                    <rect x="1248.536" y="1588.514" fill="#D5E7F7" width="33.501" height="51.15" />
                    <rect x="1189.46" y="1588.514" fill="#D5E7F7" width="33.501" height="51.15" />
                    <rect x="1128.617" y="1588.514" fill="#D5E7F7" width="33.502" height="51.15" />
                    <rect x="1069.542" y="1588.514" fill="#D5E7F7" width="33.501" height="51.15" />
                    <rect x="1010.072" y="1588.514" fill="#D5E7F7" width="33.502" height="51.15" />
                    <rect x="950.997" y="1588.514" fill="#D5E7F7" width="33.502" height="51.15" />
                    <rect x="889.04" y="1588.514" fill="#D5E7F7" width="33.501" height="51.15" />
                    <rect x="829.964" y="1588.514" fill="#D5E7F7" width="33.502" height="51.15" />
                    <rect x="1367.081" y="1669.772" fill="#D5E7F7" width="33.501" height="51.15" />
                    <rect x="1308.005" y="1669.772" fill="#D5E7F7" width="33.502" height="51.15" />
                    <rect x="1248.536" y="1669.772" fill="#D5E7F7" width="33.501" height="51.15" />
                    <rect x="1189.46" y="1669.772" fill="#D5E7F7" width="33.501" height="51.15" />
                    <rect x="1128.617" y="1669.772" fill="#D5E7F7" width="33.502" height="51.15" />
                    <rect x="1069.542" y="1669.772" fill="#D5E7F7" width="33.501" height="51.15" />
                    <rect x="1010.072" y="1669.772" fill="#D5E7F7" width="33.502" height="51.15" />
                    <rect x="950.997" y="1669.772" fill="#D5E7F7" width="33.502" height="51.15" />
                    <rect x="889.04" y="1669.772" fill="#D5E7F7" width="33.501" height="51.15" />
                    <rect x="829.964" y="1669.772" fill="#D5E7F7" width="33.502" height="51.15" />
                    <rect x="1367.081" y="1745.418" fill="#D5E7F7" width="33.501" height="51.15" />
                    <rect x="1308.005" y="1745.418" fill="#D5E7F7" width="33.502" height="51.15" />
                    <rect x="1248.536" y="1745.418" fill="#D5E7F7" width="33.501" height="51.15" />
                    <rect x="1189.46" y="1745.418" fill="#D5E7F7" width="33.501" height="51.15" />
                    <rect x="1128.617" y="1745.418" fill="#D5E7F7" width="33.502" height="51.15" />
                    <rect x="1069.542" y="1745.418" fill="#D5E7F7" width="33.501" height="51.15" />
                    <rect x="1010.072" y="1745.418" fill="#D5E7F7" width="33.502" height="51.15" />
                    <rect x="950.997" y="1745.418" fill="#D5E7F7" width="33.502" height="51.15" />
                    <rect x="889.04" y="1745.418" fill="#D5E7F7" width="33.501" height="51.15" />
                    <rect x="829.964" y="1745.418" fill="#D5E7F7" width="33.502" height="51.15" />
                    <polygon fill="#C4D9ED" points="1013.349,1491.976 882.23,1491.976 882.23,1377.658 1013.349,1427.857 		" />
                    <polygon fill="#C4D9ED" points="1659.578,1842.741 1959.639,1842.741 1959.639,1516.337 1659.578,1620.213 		" />
                    <rect x="1667.503" y="1631.02" fill="#D5E7F7" width="284.211" height="10.086" />
                    <rect x="1667.503" y="1663.438" fill="#D5E7F7" width="284.211" height="10.086" />
                    <rect x="1667.503" y="1695.858" fill="#D5E7F7" width="284.211" height="10.086" />
                    <rect x="1667.503" y="1728.277" fill="#D5E7F7" width="284.211" height="10.086" />
                    <rect x="1667.503" y="1760.697" fill="#D5E7F7" width="284.211" height="10.086" />
                    <rect x="1667.503" y="1793.117" fill="#D5E7F7" width="284.211" height="10.086" />
                    <rect x="857.015" y="1377.658" fill="#C4D9ED" width="25.215" height="97.532" />
                    <rect x="909.933" y="1426.596" fill="#D5E7F7" width="51.151" height="33.501" />
                    <g>
                        <rect x="1915.414" y="755.332" fill="#C4D9ED" width="17.389" height="147.509" />
                        <rect x="1880.834" y="755.332" fill="#C4D9ED" width="17.388" height="147.509" />
                        <rect x="1846.722" y="755.332" fill="#C4D9ED" width="17.388" height="147.509" />
                        <rect x="1811.415" y="755.332" fill="#C4D9ED" width="17.388" height="147.509" />
                    </g>
                </g>
                <path fill="#82B479" d="M2135.746,1771.626c-369.037,132.378-972.098,8.636-1281.129-60.452
           c-309.031-69.089-521.415,135.173-521.415,135.173l1889.677,3.159C2382.02,1816.74,2504.782,1639.248,2135.746,1771.626z"/>
                <path fill="#A8D2A0" d="M2174,1631.27c-22-90-223,157-276,19s40-250-51-407s-298.831,23-320.916,204
           c-22.084,181-72.28,390.378-170.682,309.689C1257,1676.27,980.131,1516.563,824,1608.27
           c-156.131,91.708,76.411,184.198-178.294,238.6L2016,1849.16C2016,1849.16,2196,1721.27,2174,1631.27z"/>
                <g>
                    <path fill="#F4AC75" d="M1555.875,1827.769c0.103,5.02,2.636,8.432,6.889,10.674c0.011,0.009,0.04,0.029,0.07,0.028
               c7.858,4.136,21.524,4.312,36.369,3.385c1.908-0.115,3.617-0.197,5.138-0.225c0.41-0.008,0.81-0.016,1.189-0.002
               c0.32-0.006,0.63-0.002,0.92-0.008c12.204,0.074,13.281,3.135,29.263,5.248l40.293-0.748c11.02-2.806,15.841-7.656,16.95-10.417
               c1.509-3.799-12.238-7.813-27.605-12.42c-0.744-0.216-1.479-0.452-2.243-0.668c-2.041-0.611-4.095-1.243-6.146-1.866
               c-18.3-5.712-36.34-12.548-41.15-30.871c-5.093-19.438,8.134-74.193,8.134-74.193l-50.593-4.512c0,0-3.812,57.051-6.651,74.855
               c-1.533,9.511-5.693,17.13-8.051,25.295c-0.171,0.573-0.33,1.146-0.479,1.719
               C1556.971,1817.826,1555.761,1822.729,1555.875,1827.769z"/>
                    <path fill="#415DA5" d="M1569.435,1745.589c0,0,13.596,9.064,23.307,11.006c9.712,1.942,29.782-4.531,29.782-4.531
               c3.639-40.802,12.094-104.6,28.525-176.594c18.711-81.965,47.768-174.534,91.896-255.891
               c10.14-18.698,17.817-41.293,23.619-64.691c17.545-70.699,18.063-148.754,18.063-148.754l-167.283-19.63
               c0,0-2.071,111.604-10.773,211.438c-2.603,29.897-5.801,58.734-9.724,83.207c-3.717,23.179-8.067,42.446-13.169,54.967
               C1555.19,1506.039,1569.435,1745.589,1569.435,1745.589z"/>
                    <path fill="#F4AC75" d="M1856.761,1835.853c2.806,14.024,22.796,11.685,45.132,6.227c22.335-5.457,17.025,1.031,48.813-2.488
               c31.788-3.519,41.418-15.371,42.388-20.098c0.867-4.193-14.839-5.673-31.687-7.613c-2.118-0.237-4.246-0.5-6.375-0.763
               c-19.021-2.386-32.95-14.66-50.229-24.74c-16.365-9.548-40.787-48.449-40.787-48.449l-43.594,3.452
               c0,0,22.875,34.746,31.724,49.853c5.204,8.886,4.929,20.635,4.279,29.708C1856.088,1825.872,1855.766,1830.913,1856.761,1835.853z
               "/>
                    <path fill="#B84C42" d="M1901.893,1842.079c22.335-5.457,17.025,1.031,48.813-2.488c31.788-3.519,41.418-15.371,42.388-20.098
               c0.867-4.193-14.839-5.673-31.687-7.613l-0.157,0.324c0,0-19.063,13.516-45.523,14.149c-21.565,0.524-44.408-5.654-59.301-5.413
               c-0.337,4.932-0.659,9.973,0.336,14.912C1859.566,1849.877,1879.557,1847.537,1901.893,1842.079z"/>
                    <path fill="#355493" d="M1596.847,1381.149l54.202,194.32c18.711-81.965,47.768-174.534,91.896-255.891
               c10.14-18.698,17.817-41.293,23.619-64.691c-7.109-26.959-25.212-81.032-71.528-82.923
               c-39.377-1.605-71.063,72.474-88.466,125.978C1603.968,1327.84,1600.77,1356.677,1596.847,1381.149z"/>
                    <path fill="#B84C42" d="M1635.713,1846.869c-15.981-2.113-17.059-5.174-29.263-5.248c-0.29,0.006-0.6,0.002-0.92,0.008
               c-0.38-0.014-0.779-0.006-1.189,0.002c-1.551,0.009-3.261,0.051-5.159,0.136c-14.55,0.69-27.997,0.38-36.348-3.296
               c-0.03,0.001-0.06-0.02-0.07-0.028c-4.253-2.242-6.786-5.654-6.889-10.674c-0.114-5.039,1.096-9.942,2.296-14.726
               c0.149-0.572,0.309-1.146,0.479-1.719c15.252,3.247,36.564,13.433,57.896,17.037c24.251,4.141,44.556-3.338,48.805-5.077
               c15.367,4.606,29.115,8.621,27.605,12.42c-1.109,2.761-5.931,7.611-16.95,10.417L1635.713,1846.869z"/>
                    <path fill="#415DA5" d="M1712.301,1118.443c0,0,47.479,260.699,91.504,395.365c44.024,134.666,73.159,235.988,73.159,235.988
               s-4.729,6.12-17.564,10.622c-16.75,5.875-27.432,4.916-27.432,4.916s-123.983-166.065-139.521-251.526
               c-15.539-85.461-57.79-153.199-91.504-215.811c-48.342-89.777-46.473-153.158-28.919-194.661
               C1589.794,1061.324,1712.301,1118.443,1712.301,1118.443z"/>
                    <path fill="#F4AC75" d="M1945.909,712.353l2.502-23.34c0,0,34.07-5.952,35.514-43.859c0,0-0.552-15.567-10.919-10.372
               c-10.369,5.196-5.814,4.663-20.557,11.676c-14.741,7.013-25.726,20.043-26.061,31.746l-6.803,27.481L1945.909,712.353z"/>
                    <path fill="#F4AC75" d="M1444.087,1088.762l-9.771,15.829c-5.075,5.829-6.433,9.088-10.452,11.066
               c-9.704,4.777-27.626,17.03-28.979,42.771c0,0,0.306,14.568,10.073,9.848c9.768-4.72,5.502-4.283,19.384-10.644
               c13.883-6.36,19.032-26.592,20.246-33.49l11.329-14.871L1444.087,1088.762z"/>
                    <path fill="#233862" d="M1754.6,628.986c5.18-42.299-8.031-109.985-92.456-99.169c-84.426,10.816-111.031,93.786-94.004,130.678
               c17.026,36.892-24.512,45.788-37.552,85.461c-11.202,34.081-15.106,76.397-33.234,95.388
               c-58.445,61.228,56.11,155.383,125.17,135.529c125.788-36.164,141.99-41.561,137.525-140.396
               c-2.288-50.639-41.686-70.259-16.672-84.91C1803.805,716.174,1742.879,724.702,1754.6,628.986z"/>
                    <path fill="#F4AC75" d="M1578.575,750.12c18.654-4.771,36.049-8.095,51.967-10.362l-0.001-0.001c0,0,7.125-1.4,10.52-76.287
               l62.812,19.128c0,0-4.756,27.649,4.533,53.222c16.682,0.839,26.406,2.576,27.638,2.576c0,0,53.729,116.12,45.116,169.313
               c-8.612,53.194-6,203.491-6,203.491l-186.876-2.318c0,0,6.548-38.863,23.773-82.65
               C1629.283,982.443,1578.575,750.12,1578.575,750.12z"/>
                    <path fill="#F4AC75" d="M1720.272,686.86c0,0-75.198,15.102-83.883-31.873c-8.684-46.974-24.237-76.662,23.407-88.29
               c47.646-11.628,60.313,4.567,67.026,19.542C1733.535,601.213,1739.609,681.722,1720.272,686.86z"/>
                    <path fill="#EBBA56" d="M1591.446,996.732c-2.731,30.751-31.465,101.024-25.249,115.993c6.513,15.72,15.563,23.684,35.362,28.229
               c13.647,3.146,32.397,4.661,58.942,5.981c56.301,2.798,121.717-1.295,129.927-28.059c3.937-12.846-2.668-65.533-4.753-88.479
               c-4.312-47.482,4.727-115.618,6.047-159.708c1.088-36.774-21.093-120.461-21.093-120.461s-7.964-10.462-41.41-12.638
               c0,0-3.302,43.468-25.987,47.21c-39.222,6.475-70.829-29.458-80.062-43.921c0,0-45.049,11.369-58.269,26.441
               c-12.521,14.27,4.609,119.995,8.416,130.134c3.289,8.701,6.396,17.196,9.104,25.729
               C1589.582,945.701,1593.959,968.568,1591.446,996.732z"/>
                    <path fill="#233862" d="M1682.772,554.971c0,0,1.318,15.932-23.413,42.968c-24.732,27.036-18.836,75.235-18.836,75.235
               s-41.68-78.347-19.443-103.362C1643.316,544.797,1682.772,554.971,1682.772,554.971z"/>
                    <path fill="#233862" d="M1653.287,534.239c0,0,37.386-12.51,74.481,24.047c15.981,15.749,13.567,46.708,5.008,64.672
               c0,0-13.147-38.495-37.075-46.891S1653.287,534.239,1653.287,534.239z"/>
                    <path fill="#EBBA56" d="M1729.22,737.591c0,0,25.819,104.728,40.918,113.249c7.406,4.183,14.8,7.834,22.077,11.032
               c56.962,25.042,107.176,22.013,107.176,22.013c16.044-12.379,27.011-35.687,34.495-61.325
               c15.124-51.769,16.096-113.029,16.096-113.029s-5.465-4.144-12.586-6.085c-9.388-2.564-17.805-1.813-17.805-1.813
               c-16.859,35.57-47.807,111.009-47.807,111.009C1770.979,730.146,1729.22,737.591,1729.22,737.591z"/>
                    <path fill="#EBBA56" d="M1623.164,740.879c0,0-44.448,1.758-65.06,20.939c-23.308,21.688-58.001,154.307-67.36,218.888
               c0,0-47.043,89.654-62.019,125.221c0,0,2.806,4.855,8.417,8.524c5.438,3.556,12.301,4.964,12.301,4.964
               s84.862-94.719,90.438-109.694C1545.458,994.746,1628.864,865.847,1623.164,740.879z"/>
                    <path fill="#E7A329" d="M1566.197,1112.725c6.513,15.72,15.563,23.684,35.362,28.229c26.467-5.089,43.922-53.789,52.908-77.757
               c10.358-27.619-43.598-169.626-58.489-168.332c-11.071,0.958-13.014,19.643-13.377,28.888
               c7.161,22.518,11.357,44.816,8.845,72.979C1588.715,1027.483,1559.981,1097.756,1566.197,1112.725z"/>
                    <path fill="#E7A329" d="M1792.215,861.872c56.962,25.042,107.176,22.013,107.176,22.013
               c16.044-12.379,27.011-35.687,34.495-61.325c-6.189,4.157-15.927,13.919-29.729,31.517
               c-25.923,33.058-69.275-22.984-92.259-24.603C1802.197,828.791,1787.903,854.918,1792.215,861.872z"/>
                    <path fill="#FFFFFF" d="M1696.844,663.748c0,0,2.012,5.575,16.168,3.044c0,0,11.886-2.123,10.792-8.379
               C1723.804,658.413,1711.679,655.272,1696.844,663.748z"/>
                </g>
                <g id="man_2_">
                    <g>
                        <path fill="#233862" d="M976.237,1747.415c0,0-21.138,19.591-17.013,33.51c4.124,13.92,23.2,23.201,25.777,40.215
                   c2.578,17.013,12.889,26.292,22.168,26.292c9.281,0,44.243,0,44.243,0s6.832-11.972-9.666-15.58
                   c-16.499-3.609-22.719-23.602-21.688-42.161c1.032-18.561-1.546-43.307-1.546-43.307l-35.058-8.25L976.237,1747.415z"/>
                        <path fill="#233862" d="M1363.375,1847.432h-117.379c-1.088-0.215-1.892-0.464-2.409-0.713
                   c-7.833-3.908-5.388-33.881-4.424-43.159c0.178-1.729,0.303-2.73,0.303-2.73s41.25-32.989,46.923-7.725
                   c0.178,0.785,0.375,1.569,0.606,2.32c7.137,23.64,39.162,34.362,57.646,37.376
                   C1358.789,1835.086,1362.447,1843.328,1363.375,1847.432z"/>
                        <path fill="#2B478B" d="M1337.783,1161.816c0,0-6.264,78.152-13.626,172.099c-10.007,127.615-22.04,284.37-23.23,314.067
                   c-2.058,51.565-9.306,144.831-9.306,144.831s-19.581,19.598-58.774,11.339c0,0-35.935-128.532-45.91-253.115
                   c-0.155-2.042-0.309-4.1-0.464-6.157c-9.279-126.826-23.71-393.891-23.71-393.891L1337.783,1161.816z"/>
                        <path fill="#233862" d="M1337.783,1161.816c0,0-6.264,78.152-13.626,172.099l-137.221,217.122
                   c-0.155-2.042-0.309-4.1-0.464-6.157c-9.279-126.826-23.71-393.891-23.71-393.891L1337.783,1161.816z"/>
                        <path fill="#2B478B" d="M1309.177,1171.098c0,0-112.908,283.041-187.148,416.055c-74.24,133.015-99.174,179.594-99.174,179.594
                   s-42.534-17.014-46.401-28.612c0,0,30.124-266.251,79.841-328.85c28.093-35.371,61.093-141.521,62.641-178.641
                   c1.546-37.12,10.053-110.588,10.053-110.588L1309.177,1171.098z"/>
                    </g>
                    <path fill="#C97C47" d="M1402.658,1098.838l7.363,12.364c0,0,33.063,2.21,26.52,36.982c0,0-3.841,14.391-13.188,10.601
               c-9.348-3.79-4.873-3.736-18.242-8.779c-13.369-5.044-21.685-15.989-19.553-26.734l-2.879-11.02L1402.658,1098.838z"/>
                    <path fill="#F4AC75" d="M1251.269,734.194c5.021-29.641,5.175-47.208,5.175-47.208l-57.286-46.168
               c2.128,63.484-38.551,94.008-38.551,94.008s76.339,37.578,120.464,23.661C1281.071,758.486,1270.207,744.6,1251.269,734.194z"/>
                    <path fill="#F4AC75" d="M1269.938,685.938c0,0-72.878,12.106-79.719-33.394c-6.841-45.5-20.855-74.582,25.387-84.236
               c46.241-9.654,57.913,6.346,63.89,20.978C1285.474,603.918,1288.719,681.616,1269.938,685.938z"/>
                    <path fill="#233862" d="M1190.7,655.683c0,0,1.47-60.948,67.874-70.73c45.483-6.701,17.939-44.707,12.739-50.726
               c0,0-34.769,6.635-70.355,14.444C1126.266,565.064,1182.805,646.621,1190.7,655.683z"/>
                    <path fill="#B84C42" d="M1403.79,1104.18c5.048-13.013-10.54-47.16-10.54-47.16s-31.147-70.849-35.025-82.853
               c-18.54-57.392-47.354-184.029-47.354-184.029l-118.981,29.759c0,0,101.417,121.086,125.657,181.088
               c14.578,36.084,44.687,90.479,61.514,112.376c5.246,6.826,15.679,6.384,20.338-0.856
               C1401.135,1109.806,1402.717,1106.946,1403.79,1104.18z"/>
                    <path fill="#D8716B" d="M1342.652,1168.322c-1.325,1.104-2.872,1.767-4.64,1.767c-16.57-0.222-50.153-1.326-91.029-5.523
               c-34.466-3.312-74.015-9.059-112.459-17.896c-4.64-1.104-14.361-7.292-14.141-12.152c0.663-23.861,8.837-95.447,3.756-181.835
               c-5.966-105.613,11.694-204.813,52.789-235.525c3.093-2.209,22.111,7.509,39.566,16.127c16.129,7.954,28.889,8.597,44.134,5.502
               l18.614,13.719c18.559,17.233,38.886,40.654,47.723,76.225c7.513,30.27,11.931,84.843,14.362,141.404
               c1.105,25.63,1.987,51.481,2.208,76.005v0.882c0.222,2.433,0.222,5.084,0.222,7.513
               C1344.641,1117.505,1343.757,1167.438,1342.652,1168.322z"/>
                    <path fill="#B84C42" d="M1342.652,1168.322c-1.325,1.104-2.872,1.767-4.64,1.767c-16.57-0.222-50.153-1.326-91.029-5.523
               c-81.306-84.841-97.878-332.078-97.878-332.078c37.119-9.28,153.336,90.366,192.222,137.647
               c1.105,25.63,1.987,51.481,2.208,76.005l0.433,0.879c-0.221,2.873,0.344,3.813,0.344,3.813c0.221,0.884-0.555,2.82-0.555,3.703
               C1344.641,1117.505,1343.757,1167.438,1342.652,1168.322z"/>
                    <g>
                        <g>
                            <polygon fill="#415DA5" points="1445.952,909.819 1441.074,889.912 1321.114,400.134 1329.377,398.107 1449.4,888.079 
                       1454.271,907.967 1454.287,908.053 				"/>
                        </g>
                        <g>
                            <path fill="#739AF0" d="M1856.583,379.752c-92.122-0.098-230.799,117.902-230.799,117.902
                       c-303.273-9.522-490.755,108.744-490.755,108.744c-48.108-12.292-92.932-17.657-130.974-19.408
                       c-71.677-3.307-119.257,6.184-119.257,6.184s61.017-300.274,398.743-394.266c0.768-0.21,1.542-0.434,2.314-0.634
                       c3.005-0.832,6.048-1.635,9.105-2.432c10.465-2.725,21.185-5.25,32.176-7.563
                       C1703.267,109.157,1856.583,379.752,1856.583,379.752z"/>
                            <path fill="#4A75CB" d="M1625.78,497.667c-141.034-4.134-257.059,19.112-340.821,45.155
                       c-96.275,29.935-149.93,63.576-149.93,63.576s14.709-274.952,149.196-404.348c1.251-1.2,2.506-2.391,3.79-3.57
                       c0.414-0.399,0.836-0.778,1.254-1.167c0,0,2.235,0.499,6.38,1.681C1331.142,209.085,1507.125,269.313,1625.78,497.667z"/>
                            <g>
                                <path fill="#415DA5" d="M1293.04,199.94l-4.093,1.136l-8.201-29.529c0,0,0.668-0.716,1.887-1.078
                           c1.382-0.411,2.207-0.058,2.207-0.058L1293.04,199.94z"/>
                            </g>
                        </g>
                        <path fill="#233862" d="M1440.312,892.572l3.711,20.137l0.021,0.084c0.333,1.436,8.234,35.05,33.286,36.26
                   c0.467,0.023,0.935,0.037,1.401,0.039c8.699,0.044,16.312-3.496,22.092-10.297c7.063-8.302,10.043-20.046,8.746-26.16
                   c0,0-0.934-2.191-4.804-1.51c-3.901,0.691-3.521,3.285-3.521,3.285c0.611,2.925-1.262,12.231-6.904,18.872
                   c-4.381,5.14-9.948,7.576-16.595,7.266c-18.213-0.878-25.001-27.976-25.375-29.56l-3.712-20.158
                   C1446.235,890.903,1443.228,891.313,1440.312,892.572z"/>
                    </g>
                    <path fill="#F4AC75" d="M1403.79,934.895l13.578-12.587c0,0-9.612-32.499,29.263-39.008c0,0,11.718-2.705,16.79,11.058
               c3.78,10.259,0.896,9.479-4.378,25.599c-5.275,16.122-15.603,21.721-27.618,23.616l-12.194,7.313L1403.79,934.895z"/>
                    <path fill="#D8716B" d="M1409.638,914.264c0,0,7.988,1.253,19.262,11.598c15.614,14.331,8.837,25.914,8.837,25.914
               s-113.604,127.391-189.109,115.626c0,0-129.742-167.443-92.952-253.049c33.263-77.405,66.758-72.58,72.857-70.944
               c0.654,0.175,0.991,0.308,0.991,0.308s10.279,106.729,53.787,237.52C1285.26,987.095,1329.145,969.677,1409.638,914.264z"/>
                </g>
                <g>
                    <g>
                        <path fill="#DCEAF9" d="M805.499,456.2c1.771,4.752,0.345,9.67-3.185,10.985c-3.53,1.315-7.827-1.47-9.598-6.221
                   c-1.771-4.751-1.957-24.78-1.957-24.78S803.728,451.449,805.499,456.2z"/>
                        <path fill="#DCEAF9" d="M837.14,350.121c-3.529,1.315-7.826-1.47-9.597-6.222c-1.771-4.751-1.957-24.779-1.957-24.779
                   s12.968,15.264,14.738,20.016C842.096,343.887,840.67,348.806,837.14,350.121z"/>
                        <path fill="#FFFFFF" d="M970.635,526.643c-3.53,1.315-7.827-1.47-9.598-6.221c-1.771-4.751-1.956-24.779-1.956-24.779
                   s12.968,15.264,14.738,20.016S974.164,525.328,970.635,526.643z"/>
                    </g>
                    <g>
                        <path fill="#FFFFFF" d="M1838.465,749.336c2.644,7.094,0.515,14.438-4.756,16.402c-5.27,1.964-11.686-2.195-14.329-9.289
                   c-2.645-7.094-2.922-36.999-2.922-36.999S1835.82,742.241,1838.465,749.336z"/>
                        <path fill="#FFFFFF" d="M1738.997,377.673c-5.27,1.964-11.687-2.194-14.33-9.289c-2.644-7.094-2.921-36.998-2.921-36.998
                   s19.361,22.791,22.006,29.885C1746.396,368.366,1744.268,375.709,1738.997,377.673z"/>
                        <path fill="#FFFFFF" d="M2026.219,691.907c-5.271,1.964-11.686-2.195-14.33-9.289c-2.644-7.095-2.921-36.999-2.921-36.999
                   s19.362,22.792,22.007,29.886C2033.617,682.6,2031.489,689.943,2026.219,691.907z"/>
                    </g>
                    <g>
                        <path fill="#DCEAF9" d="M1203.874,411.734c1.771,4.751,0.344,9.669-3.185,10.985s-7.826-1.47-9.597-6.221
                   c-1.771-4.751-1.957-24.78-1.957-24.78S1202.103,406.982,1203.874,411.734z"/>
                        <path fill="#FFFFFF" d="M1235.515,305.654c-3.531,1.315-7.828-1.47-9.598-6.221c-1.771-4.752-1.957-24.78-1.957-24.78
                   s12.968,15.265,14.739,20.016C1240.47,299.42,1239.044,304.339,1235.515,305.654z"/>
                        <path fill="#DCEAF9" d="M1369.009,482.176c-3.529,1.315-7.826-1.47-9.597-6.221c-1.771-4.751-1.956-24.779-1.956-24.779
                   s12.967,15.264,14.738,20.016C1373.965,475.943,1372.539,480.861,1369.009,482.176z"/>
                    </g>
                    <g>
                        <path fill="#FFFFFF" d="M1795.938,273.671c1.771,4.751,0.345,9.669-3.185,10.985c-3.53,1.316-7.827-1.47-9.598-6.221
                   c-1.771-4.751-1.957-24.78-1.957-24.78S1794.166,268.919,1795.938,273.671z"/>
                        <path fill="#DCEAF9" d="M1827.578,167.591c-3.529,1.315-7.826-1.47-9.597-6.221c-1.771-4.751-1.957-24.78-1.957-24.78
                   s12.968,15.265,14.738,20.016C1832.534,161.358,1831.108,166.276,1827.578,167.591z"/>
                        <path fill="#DCEAF9" d="M1994.71,404.114c-3.529,1.315-7.826-1.47-9.597-6.222c-1.771-4.751-1.957-24.779-1.957-24.779
                   s12.968,15.265,14.738,20.016C1999.665,397.88,1998.239,402.798,1994.71,404.114z"/>
                    </g>
                </g>
                <path fill="#283250" d="M2626.745,1852.415H173.255c-1.601,0-2.909-1.309-2.909-2.908l0,0c0-1.6,1.308-2.909,2.909-2.909h2453.49
           c1.599,0,2.909,1.31,2.909,2.909l0,0C2629.654,1851.106,2628.344,1852.415,2626.745,1852.415z"/>
                <path fill="#C97C47" d="M1703.128,688.896c-55.378,1.375-62.183-21.444-62.183-21.444l-0.754,12.433
           c17.815,38.363,63.448,35.792,63.448,35.792C1701.871,705.742,1703.128,688.896,1703.128,688.896z"/>
            </g>
        </svg>